<svg width="1200" height="1200" viewBox="0 0 1200 1200" fill="none" xmlns="http://www.w3.org/2000/svg">
<g clip-path="url(#clip0_3_11)">
<path d="M1197 0H3C1.34315 0 0 1.34315 0 3V1197C0 1198.66 1.34315 1200 3 1200H1197C1198.66 1200 1200 1198.66 1200 1197V3C1200 1.34315 1198.66 0 1197 0Z" fill="#E9E9E9"/>
<path d="M728.494 566.349V565.392L635.796 618.817L635.483 618.973V725.98L728.351 672.321L728.494 566.349ZM727.207 671.662L636.595 723.959V619.606L727.284 567.39L727.207 671.662Z" fill="black"/>
<path d="M760.055 506.494L599.074 413L438 506.668L438.235 506.825L438.251 525.057L453.91 515.91L470.133 525.308L438.235 543.869V562.258L485.95 534.456L502.503 544.011L438.317 581.369V599.852L469.901 581.291V566.354L482.751 573.744L518.335 553.017L534.559 562.416L498.974 583.142L514.806 592.305L550.313 571.578L566.787 581.134L531.203 601.86L547.035 611.023L582.542 590.297L598.844 599.695L561.643 621.3V639.689L598.924 617.912V637.038L561.643 658.721V677.11L598.924 655.333V674.208L561.643 695.891V714.28L598.924 692.503V711.143L590.577 715.96L535.301 748.093L535.379 748.171L551.211 757.334L598.925 729.453V748.249L567.357 766.638L583.267 775.801L598.925 766.638V786L760.957 692.332L761.192 506.609V505.652L760.055 506.494ZM507.414 505.867L599.232 452.442L691.534 506.024L639.96 535.741L599.556 558.962L507.414 505.867ZM759.978 691.744L600.209 784.046V599.846L760.232 507.701L759.978 691.744Z" fill="black"/>
<path d="M469.986 618.488L469.907 600.005L438.418 618.331L438.496 636.799L469.986 618.488Z" fill="black"/>
<path d="M469.986 637.444L438.496 655.754V674.237L469.986 655.926V637.444Z" fill="black"/>
<path d="M472.232 673.279L439.22 692.468L455.208 701.709L488.22 682.504L472.232 673.279Z" fill="black"/>
<path d="M504.536 691.903L471.508 711.107L487.496 720.349L520.43 701.144L504.536 691.903Z" fill="black"/>
<path d="M536.575 710.463L503.563 729.667L519.473 738.909L552.485 719.626L536.575 710.463Z" fill="black"/>
</g>
<defs>
<clipPath id="clip0_3_11">
<rect width="1200" height="1200" fill="white"/>
</clipPath>
</defs>
</svg>
