<svg width="1200" height="1200" viewBox="0 0 1200 1200" fill="none" xmlns="http://www.w3.org/2000/svg">
<g clip-path="url(#clip0_3_20)">
<path d="M1197 0H3C1.34315 0 0 1.34315 0 3V1197C0 1198.66 1.34315 1200 3 1200H1197C1198.66 1200 1200 1198.66 1200 1197V3C1200 1.34315 1198.66 0 1197 0Z" fill="#E9E9E9"/>
<path d="M636.394 620.754V726.637L728.491 673.617V567.733L694.97 586.997L636.394 620.754Z" fill="black"/>
<path d="M666.688 562.899L761.606 508.27L599.395 414L438 507.86L438.236 508.096L438.472 693.836L443.713 696.905L443.728 511.165L449.205 514.234V699.722L453.549 702.146V516.799L459.026 519.868V705.356L463.369 707.779L463.385 522.369L468.862 525.437V711.177L473.206 713.601V675.249L470.389 673.722L469.979 567.839L472.796 569.617V528.197L478.273 531.266V572.686L482.459 575.11V533.689L487.936 536.758V578.179L492.28 580.603V539.353L497.757 542.422V583.843L502.1 586.266V544.846L507.577 547.915V589.335L511.921 591.759V550.51L517.398 553.578V594.999L521.584 597.423V556.002L527.061 559.071V600.32L531.404 602.744L531.467 561.367L536.944 564.436V605.857L541.288 608.28V567.031L546.764 570.1L546.78 611.316L551.124 613.739V572.725L556.601 575.794V617.043L560.787 619.467V578.217L566.264 581.286V767.026L570.608 769.45L570.639 583.68L576.116 586.749V772.475L580.46 774.899V589.394L585.936 592.463V778.202L590.28 780.626L590.296 594.886L595.772 597.955V783.695L601.249 787V601.247L666.688 562.899ZM507.546 507.219L599.643 453.712L692.06 507.377L640.329 537.184L599.801 560.398L507.546 507.219Z" fill="black"/>
<path d="M478.37 716.803L482.477 719.227V680.623L478.37 678.215V716.803Z" fill="black"/>
<path d="M487.797 722.279L492.157 724.703V686.351L487.797 683.927V722.279Z" fill="black"/>
<path d="M497.631 727.755L501.818 730.415V691.982L497.631 689.401V727.755Z" fill="black"/>
<path d="M536.225 750.089L540.584 752.748V714.145L536.225 711.737V750.089Z" fill="black"/>
<path d="M545.901 755.796L550.245 758.22V719.868L545.901 717.444V755.796Z" fill="black"/>
<path d="M526.559 744.583L530.745 747.006V708.654L526.559 706.231V744.583Z" fill="black"/>
<path d="M555.487 761.269L559.673 763.693V725.341L555.487 722.917V761.269Z" fill="black"/>
<path d="M507.297 733.483L511.405 735.907V697.457L507.297 695.128V733.483Z" fill="black"/>
<path d="M516.973 738.976L521.081 741.399V703.047L516.973 700.624V738.976Z" fill="black"/>
</g>
<defs>
<clipPath id="clip0_3_20">
<rect width="1200" height="1200" fill="white"/>
</clipPath>
</defs>
</svg>
