<svg height="464pt" viewBox="0 0 464 464" width="464pt" xmlns="http://www.w3.org/2000/svg"><path d="m400 0h-304c-8.824219.0273438-15.972656 7.175781-16 16v432c.027344 8.824219 7.175781 15.972656 16 16h304c8.824219-.027344 15.972656-7.175781 16-16v-432c-.027344-8.824219-7.175781-15.9726562-16-16zm0 0" fill="#e6e7e8"/><path d="m376 144h-368c-4.417969 0-8 3.582031-8 8l80 46.640625 71.28125 41.597656 40.71875 23.761719 40.398438-23.601562 151.601562-88.398438c0-4.417969-3.582031-8-8-8zm0 0" fill="#cc7400"/><path d="m80 198.640625-80-46.640625v240l80-80.238281 71.28125-71.523438zm0 0" fill="#ff9811"/><path d="m232.398438 240.398438 151.601562 151.601562v-240zm0 0" fill="#ff9811"/><path d="m232.398438 240.398438-40.398438 23.601562-40.71875-23.761719-71.28125 71.523438-80 80.238281v8c.0273438 8.824219 7.175781 15.972656 16 16h352c8.824219-.027344 15.972656-7.175781 16-16v-8zm0 0" fill="#ee8700"/><path d="m384 0v64l-16-24-16 24v-64zm0 0" fill="#ff6243"/><path d="m464 272v80c-.027344 8.824219-7.175781 15.972656-16 16h-80c-8.824219-.027344-15.972656-7.175781-16-16v-80zm0 0" fill="#00ccb3"/><path d="m416 312c0 4.417969-3.582031 8-8 8s-8-3.582031-8-8 3.582031-8 8-8 8 3.582031 8 8zm0 0" fill="#57565c"/><path d="m144 40h48v16h-48zm0 0" fill="#c6c5ca"/><path d="m144 72h48v16h-48zm0 0" fill="#c6c5ca"/><path d="m424 312c.039062-7.773438-5.515625-14.453125-13.167969-15.828125-7.652343-1.375-15.1875 2.949219-17.859375 10.25-2.667968 7.300781.292969 15.464844 7.027344 19.355469v18.222656h16v-18.222656c4.933594-2.835938 7.984375-8.085938 8-13.777344zm0 0" fill="#57565c"/><path d="m456 272h-16v-32c0-13.253906-10.746094-24-24-24h-16c-13.253906 0-24 10.746094-24 24v32h-16v-32c.027344-22.082031 17.917969-39.972656 40-40h16c22.082031.027344 39.972656 17.917969 40 40zm0 0" fill="#898890"/><g fill="#ff9811"><path d="m40 440h16v16h-16zm0 0"/><path d="m8 440h16v16h-16zm0 0"/><path d="m40 104h16v16h-16zm0 0"/><path d="m40 72h16v16h-16zm0 0"/><path d="m40 40h16v16h-16zm0 0"/></g></svg>