<?xml version="1.0" encoding="iso-8859-1"?>
<!-- Generator: Adobe Illustrator 21.0.0, SVG Export Plug-In . SVG Version: 6.00 Build 0)  -->
<svg xmlns="http://www.w3.org/2000/svg" xmlns:xlink="http://www.w3.org/1999/xlink" version="1.1" id="Capa_1" x="0px" y="0px" viewBox="0 0 512 512" style="enable-background:new 0 0 512 512;" xml:space="preserve" width="512" height="512">
<g>
	<g>
		<path style="fill:#FFCB00;" d="M366.851,321.363H14.293C6.399,321.363,0,314.964,0,307.07V45.986    c0-7.894,6.399-14.293,14.293-14.293h352.558c7.894,0,14.293,6.399,14.293,14.293V307.07    C381.144,314.964,374.745,321.363,366.851,321.363z"/>
	</g>
	<path style="fill:#FFD844;" d="M232.693,166.117c-2.651-2.494-6.155-3.882-9.794-3.882h-64.848c-3.616,0-7.098,1.371-9.744,3.837   L0,304.276v2.794c0,7.894,6.399,14.293,14.293,14.293h352.558c7.894,0,14.293-6.399,14.293-14.293v-1.299L232.693,166.117z"/>
	<path style="fill:#FAE77D;" d="M381.144,45.986c0-7.894-6.399-14.293-14.293-14.293H14.293C6.399,31.693,0,38.093,0,45.986v4.036   l180.891,166.559c2.736,2.519,6.208,3.778,9.681,3.778c3.488,0,6.977-1.271,9.717-3.811L381.144,48.9V45.986z"/>
	<path style="fill:#ECBD00;" d="M366.851,31.693H190.572v289.67h176.279c7.894,0,14.293-6.399,14.293-14.293V45.986   C381.144,38.093,374.745,31.693,366.851,31.693z"/>
	<path style="fill:#FFCB00;" d="M232.693,166.117c-2.651-2.494-6.155-3.882-9.794-3.882h-32.328v159.128h176.279   c7.894,0,14.293-6.399,14.293-14.293v-1.299L232.693,166.117z"/>
	<path style="fill:#FFD844;" d="M366.851,31.693H190.572V220.36c3.488,0,6.977-1.271,9.717-3.811L381.144,48.9v-2.914   C381.144,38.093,374.745,31.693,366.851,31.693z"/>
	<g>
		<path style="fill:#00ECCF;" d="M380.977,480.307c-3.219,0-6.438-1.022-9.142-3.067l-81.326-61.476    c-26.603-20.11-40.664-53.041-40.664-95.232v-93.958c0-5.956,3.487-11.361,8.915-13.815l115.917-52.412    c3.971-1.794,8.523-1.795,12.494,0.001l115.915,52.428c5.426,2.455,8.913,7.858,8.913,13.814v93.975    c0,42.167-14.046,75.083-40.619,95.19l-81.256,61.482C387.42,479.283,384.198,480.307,380.977,480.307z"/>
	</g>
	<path style="fill:#00CAB1;" d="M503.087,212.775l-115.916-52.428c-1.986-0.898-4.117-1.347-6.249-1.347v321.304   c0.018,0,0.036,0.002,0.055,0.002c3.221,0,6.442-1.024,9.148-3.071l81.256-61.482C497.954,395.648,512,362.731,512,320.564v-93.975   C512,220.633,508.513,215.23,503.087,212.775z"/>
	<g>
		<path style="fill:#FFF3F3;" d="M371.995,358.32c-4.363,0-8.725-1.664-12.053-4.993l-26.758-26.758    c-6.658-6.656-6.658-17.45,0-24.107c6.656-6.656,17.45-6.656,24.107,0l14.705,14.705l43.858-43.857    c6.658-6.658,17.451-6.658,24.107,0c6.658,6.656,6.656,17.45,0,24.107l-55.912,55.911    C380.72,356.655,376.357,358.32,371.995,358.32z"/>
	</g>
	<path style="fill:#E9DFDA;" d="M439.96,273.31c-6.655-6.657-17.449-6.657-24.107,0l-34.931,34.93v47.538   c1.109-0.684,2.164-1.49,3.126-2.451l55.912-55.911C446.617,290.76,446.618,279.966,439.96,273.31z"/>
</g>















</svg>
