<svg id="Layer_1" data-name="Layer 1" xmlns="http://www.w3.org/2000/svg" viewBox="0 0 112.11 52.31"><defs><style>.cls-1,.cls-4{fill:#80b441;}.cls-1,.cls-2{opacity:0.99;isolation:isolate;}.cls-2,.cls-3{fill:#f4f4f4;}</style></defs><title>team</title><path class="cls-1" d="M53.45,29.82c-2.69,1.19-5.25,3.94-7.33,7.74a39.94,39.94,0,0,0-4.55,16.73H76.38A39.9,39.9,0,0,0,71.85,38c-1.94-3.54-4.3-6.17-6.8-7.47h0a12.82,12.82,0,0,1-5,1.05,13.68,13.68,0,0,1-6.55-1.71Z" transform="translate(-5.51 -1.98)"/><path class="cls-2" d="M26.88,30.74c-5,4.88-8.78,14.34-9.51,23.55H39.58a42.58,42.58,0,0,1,5-18.31c.12-.23.27-.44.4-.66a24.87,24.87,0,0,0-2.68-3.66,12.7,12.7,0,0,1-7,2.27,12.84,12.84,0,0,1-8.36-3.19Z" transform="translate(-5.51 -1.98)"/><path class="cls-2" d="M85,32.75a29.31,29.31,0,0,0-6.46,11A43.42,43.42,0,0,1,80.4,54.29h26.46c-.64-7.94-3.64-16-7.77-20.68A11.18,11.18,0,0,1,85,32.75Z" transform="translate(-5.51 -1.98)"/><path class="cls-3" d="M61,2C54.84,2,49.84,7.22,49.84,13.74s5,11.79,11.17,11.79,11.14-5.28,11.14-11.79S67.18,2,61,2Z" transform="translate(-5.51 -1.98)"/><path class="cls-2" d="M7.17,50l-.37-.25A3,3,0,0,1,6,45.63L17.49,28.11a2.85,2.85,0,0,1,4-.8l.37.26a3,3,0,0,1,.81,4.08h0L11.18,49.18a2.85,2.85,0,0,1-4,.79" transform="translate(-5.51 -1.98)"/><path class="cls-1" d="M91.68,10.67a9.57,9.57,0,0,0-9.32,9.81,9.32,9.32,0,1,0,18.61,0A9.54,9.54,0,0,0,91.68,10.67Z" transform="translate(-5.51 -1.98)"/><path class="cls-4" d="M34.25,6.87A10.42,10.42,0,0,0,24.1,17.56,10.44,10.44,0,0,0,34.25,28.27c5.61,0,10.12-4.79,10.12-10.71A10.39,10.39,0,0,0,34.25,6.87Z" transform="translate(-5.51 -1.98)"/><path class="cls-2" d="M116.36,50.37a3,3,0,0,0,.77-4.06l-9.67-14.74a2.81,2.81,0,0,0-4-.82,3,3,0,0,0-.77,4.06l9.67,14.74a2.83,2.83,0,0,0,4,.82" transform="translate(-5.51 -1.98)"/><path class="cls-2" d="M75,27.33a2.76,2.76,0,0,0-1.59.49l-.47.33a3,3,0,0,0-.75,4.05l5.15,7.87c.39-.85.81-1.67,1.25-2.47A28.15,28.15,0,0,1,80.88,34l-3.53-5.37A2.87,2.87,0,0,0,75,27.33Z" transform="translate(-5.51 -1.98)"/></svg>